<mxfile host="app.diagrams.net" agent="Mozilla/5.0 (Windows NT 10.0; Win64; x64) AppleWebKit/537.36 (KHTML, like Gecko) Chrome/140.0.0.0 Safari/537.36" version="28.2.5">
  <diagram name="Page-1" id="UOhWT0im9Pa8hdsWunde">
    <mxGraphModel dx="805" dy="375" grid="1" gridSize="10" guides="1" tooltips="1" connect="1" arrows="1" fold="1" page="1" pageScale="1" pageWidth="850" pageHeight="1100" math="0" shadow="0">
      <root>
        <mxCell id="0" />
        <mxCell id="1" parent="0" />
        <mxCell id="5YilNVTnUd-Ynj097pWx-11" style="edgeStyle=orthogonalEdgeStyle;rounded=0;orthogonalLoop=1;jettySize=auto;html=1;exitX=0.5;exitY=1;exitDx=0;exitDy=0;exitPerimeter=0;entryX=0.5;entryY=0;entryDx=0;entryDy=0;" edge="1" parent="1" source="5YilNVTnUd-Ynj097pWx-1" target="5YilNVTnUd-Ynj097pWx-2">
          <mxGeometry relative="1" as="geometry" />
        </mxCell>
        <mxCell id="5YilNVTnUd-Ynj097pWx-1" value="&lt;b&gt;START&lt;/b&gt;" style="strokeWidth=1;html=1;shape=mxgraph.flowchart.terminator;whiteSpace=wrap;" vertex="1" parent="1">
          <mxGeometry x="320" y="130" width="140" height="50" as="geometry" />
        </mxCell>
        <mxCell id="5YilNVTnUd-Ynj097pWx-12" style="edgeStyle=orthogonalEdgeStyle;rounded=0;orthogonalLoop=1;jettySize=auto;html=1;exitX=0.5;exitY=1;exitDx=0;exitDy=0;entryX=0.5;entryY=0;entryDx=0;entryDy=0;" edge="1" parent="1" source="5YilNVTnUd-Ynj097pWx-2" target="5YilNVTnUd-Ynj097pWx-8">
          <mxGeometry relative="1" as="geometry" />
        </mxCell>
        <mxCell id="5YilNVTnUd-Ynj097pWx-2" value="หน้าหลัก" style="rounded=0;whiteSpace=wrap;html=1;" vertex="1" parent="1">
          <mxGeometry x="320" y="240" width="140" height="60" as="geometry" />
        </mxCell>
        <mxCell id="5YilNVTnUd-Ynj097pWx-26" style="edgeStyle=orthogonalEdgeStyle;rounded=0;orthogonalLoop=1;jettySize=auto;html=1;exitX=0.25;exitY=1;exitDx=0;exitDy=0;entryX=0;entryY=0.75;entryDx=0;entryDy=0;" edge="1" parent="1" source="5YilNVTnUd-Ynj097pWx-3" target="5YilNVTnUd-Ynj097pWx-9">
          <mxGeometry relative="1" as="geometry">
            <mxPoint x="95" y="770" as="targetPoint" />
          </mxGeometry>
        </mxCell>
        <mxCell id="5YilNVTnUd-Ynj097pWx-3" value="เกณฑ์การรับเข้า" style="rounded=0;whiteSpace=wrap;html=1;" vertex="1" parent="1">
          <mxGeometry x="65" y="470" width="120" height="60" as="geometry" />
        </mxCell>
        <mxCell id="5YilNVTnUd-Ynj097pWx-28" style="edgeStyle=orthogonalEdgeStyle;rounded=0;orthogonalLoop=1;jettySize=auto;html=1;exitX=0.25;exitY=1;exitDx=0;exitDy=0;entryX=0;entryY=0.5;entryDx=0;entryDy=0;" edge="1" parent="1" source="5YilNVTnUd-Ynj097pWx-4" target="5YilNVTnUd-Ynj097pWx-9">
          <mxGeometry relative="1" as="geometry" />
        </mxCell>
        <mxCell id="5YilNVTnUd-Ynj097pWx-4" value="ข้อมูลหลักสูตร" style="rounded=0;whiteSpace=wrap;html=1;" vertex="1" parent="1">
          <mxGeometry x="230" y="470" width="120" height="60" as="geometry" />
        </mxCell>
        <mxCell id="5YilNVTnUd-Ynj097pWx-29" style="edgeStyle=orthogonalEdgeStyle;rounded=0;orthogonalLoop=1;jettySize=auto;html=1;exitX=0.75;exitY=1;exitDx=0;exitDy=0;entryX=1;entryY=0.167;entryDx=0;entryDy=0;entryPerimeter=0;" edge="1" parent="1" source="5YilNVTnUd-Ynj097pWx-5" target="5YilNVTnUd-Ynj097pWx-9">
          <mxGeometry relative="1" as="geometry">
            <mxPoint x="480" y="730" as="targetPoint" />
            <Array as="points">
              <mxPoint x="530" y="730" />
            </Array>
          </mxGeometry>
        </mxCell>
        <mxCell id="5YilNVTnUd-Ynj097pWx-5" value="แนะแนว&amp;amp;กิจกรรม" style="rounded=0;whiteSpace=wrap;html=1;" vertex="1" parent="1">
          <mxGeometry x="440" y="470" width="120" height="60" as="geometry" />
        </mxCell>
        <mxCell id="5YilNVTnUd-Ynj097pWx-27" style="edgeStyle=orthogonalEdgeStyle;rounded=0;orthogonalLoop=1;jettySize=auto;html=1;exitX=0.75;exitY=1;exitDx=0;exitDy=0;entryX=1;entryY=0.5;entryDx=0;entryDy=0;" edge="1" parent="1" source="5YilNVTnUd-Ynj097pWx-6" target="5YilNVTnUd-Ynj097pWx-9">
          <mxGeometry relative="1" as="geometry">
            <mxPoint x="480" y="760" as="targetPoint" />
          </mxGeometry>
        </mxCell>
        <mxCell id="5YilNVTnUd-Ynj097pWx-6" value="ติดต่อ" style="rounded=0;whiteSpace=wrap;html=1;" vertex="1" parent="1">
          <mxGeometry x="595" y="470" width="120" height="60" as="geometry" />
        </mxCell>
        <mxCell id="5YilNVTnUd-Ynj097pWx-16" style="edgeStyle=orthogonalEdgeStyle;rounded=0;orthogonalLoop=1;jettySize=auto;html=1;exitX=1;exitY=0.5;exitDx=0;exitDy=0;entryX=0.5;entryY=0;entryDx=0;entryDy=0;" edge="1" parent="1" source="5YilNVTnUd-Ynj097pWx-8" target="5YilNVTnUd-Ynj097pWx-6">
          <mxGeometry relative="1" as="geometry" />
        </mxCell>
        <mxCell id="5YilNVTnUd-Ynj097pWx-17" style="edgeStyle=orthogonalEdgeStyle;rounded=0;orthogonalLoop=1;jettySize=auto;html=1;exitX=0;exitY=0.5;exitDx=0;exitDy=0;entryX=0.5;entryY=0;entryDx=0;entryDy=0;" edge="1" parent="1" source="5YilNVTnUd-Ynj097pWx-8" target="5YilNVTnUd-Ynj097pWx-3">
          <mxGeometry relative="1" as="geometry" />
        </mxCell>
        <mxCell id="5YilNVTnUd-Ynj097pWx-18" style="edgeStyle=orthogonalEdgeStyle;rounded=0;orthogonalLoop=1;jettySize=auto;html=1;exitX=0;exitY=1;exitDx=0;exitDy=0;entryX=0.5;entryY=0;entryDx=0;entryDy=0;" edge="1" parent="1" source="5YilNVTnUd-Ynj097pWx-8" target="5YilNVTnUd-Ynj097pWx-4">
          <mxGeometry relative="1" as="geometry" />
        </mxCell>
        <mxCell id="5YilNVTnUd-Ynj097pWx-19" style="edgeStyle=orthogonalEdgeStyle;rounded=0;orthogonalLoop=1;jettySize=auto;html=1;exitX=1;exitY=1;exitDx=0;exitDy=0;entryX=0.5;entryY=0;entryDx=0;entryDy=0;" edge="1" parent="1" source="5YilNVTnUd-Ynj097pWx-8" target="5YilNVTnUd-Ynj097pWx-5">
          <mxGeometry relative="1" as="geometry" />
        </mxCell>
        <mxCell id="5YilNVTnUd-Ynj097pWx-39" style="edgeStyle=orthogonalEdgeStyle;rounded=0;orthogonalLoop=1;jettySize=auto;html=1;exitX=1;exitY=0;exitDx=0;exitDy=0;entryX=0.5;entryY=0;entryDx=0;entryDy=0;" edge="1" parent="1" source="5YilNVTnUd-Ynj097pWx-8" target="5YilNVTnUd-Ynj097pWx-38">
          <mxGeometry relative="1" as="geometry">
            <mxPoint x="820" y="360.33333333333337" as="targetPoint" />
          </mxGeometry>
        </mxCell>
        <mxCell id="5YilNVTnUd-Ynj097pWx-8" value="เลือกเมนูใน&lt;br&gt;Navigation bar" style="rhombus;whiteSpace=wrap;html=1;" vertex="1" parent="1">
          <mxGeometry x="285" y="340" width="210" height="80" as="geometry" />
        </mxCell>
        <mxCell id="5YilNVTnUd-Ynj097pWx-9" value="กลับสู่หน้าหลัก" style="rounded=0;whiteSpace=wrap;html=1;" vertex="1" parent="1">
          <mxGeometry x="320" y="720" width="140" height="60" as="geometry" />
        </mxCell>
        <mxCell id="5YilNVTnUd-Ynj097pWx-10" value="&lt;b&gt;END&lt;/b&gt;" style="strokeWidth=1;html=1;shape=mxgraph.flowchart.terminator;whiteSpace=wrap;" vertex="1" parent="1">
          <mxGeometry x="320" y="830" width="140" height="50" as="geometry" />
        </mxCell>
        <mxCell id="5YilNVTnUd-Ynj097pWx-21" value="" style="verticalLabelPosition=bottom;verticalAlign=top;html=1;shape=process;whiteSpace=wrap;rounded=1;size=0.1;arcSize=6;" vertex="1" parent="1">
          <mxGeometry x="316.25" y="595" width="147.5" height="70" as="geometry" />
        </mxCell>
        <mxCell id="5YilNVTnUd-Ynj097pWx-22" value="AI Chatbot" style="text;html=1;align=center;verticalAlign=middle;whiteSpace=wrap;rounded=0;" vertex="1" parent="1">
          <mxGeometry x="360" y="615" width="60" height="30" as="geometry" />
        </mxCell>
        <mxCell id="5YilNVTnUd-Ynj097pWx-32" value="" style="endArrow=none;dashed=1;html=1;rounded=0;entryX=0.5;entryY=1;entryDx=0;entryDy=0;exitX=0;exitY=0.5;exitDx=0;exitDy=0;" edge="1" parent="1" source="5YilNVTnUd-Ynj097pWx-21" target="5YilNVTnUd-Ynj097pWx-3">
          <mxGeometry width="50" height="50" relative="1" as="geometry">
            <mxPoint x="150" y="640" as="sourcePoint" />
            <mxPoint x="390" y="650" as="targetPoint" />
            <Array as="points">
              <mxPoint x="125" y="630" />
            </Array>
          </mxGeometry>
        </mxCell>
        <mxCell id="5YilNVTnUd-Ynj097pWx-33" value="" style="endArrow=none;dashed=1;html=1;rounded=0;entryX=0.5;entryY=1;entryDx=0;entryDy=0;exitX=1;exitY=0.5;exitDx=0;exitDy=0;" edge="1" parent="1" source="5YilNVTnUd-Ynj097pWx-21" target="5YilNVTnUd-Ynj097pWx-6">
          <mxGeometry width="50" height="50" relative="1" as="geometry">
            <mxPoint x="340" y="600" as="sourcePoint" />
            <mxPoint x="390" y="550" as="targetPoint" />
            <Array as="points">
              <mxPoint x="655" y="630" />
            </Array>
          </mxGeometry>
        </mxCell>
        <mxCell id="5YilNVTnUd-Ynj097pWx-34" value="" style="endArrow=none;dashed=1;html=1;rounded=0;entryX=0.5;entryY=1;entryDx=0;entryDy=0;exitX=0;exitY=0.25;exitDx=0;exitDy=0;" edge="1" parent="1" source="5YilNVTnUd-Ynj097pWx-21" target="5YilNVTnUd-Ynj097pWx-4">
          <mxGeometry width="50" height="50" relative="1" as="geometry">
            <mxPoint x="340" y="600" as="sourcePoint" />
            <mxPoint x="390" y="550" as="targetPoint" />
            <Array as="points">
              <mxPoint x="290" y="613" />
            </Array>
          </mxGeometry>
        </mxCell>
        <mxCell id="5YilNVTnUd-Ynj097pWx-36" value="" style="endArrow=none;dashed=1;html=1;rounded=0;entryX=0.534;entryY=0.987;entryDx=0;entryDy=0;entryPerimeter=0;exitX=1;exitY=0.25;exitDx=0;exitDy=0;" edge="1" parent="1" source="5YilNVTnUd-Ynj097pWx-21" target="5YilNVTnUd-Ynj097pWx-5">
          <mxGeometry width="50" height="50" relative="1" as="geometry">
            <mxPoint x="430" y="600" as="sourcePoint" />
            <mxPoint x="480" y="550" as="targetPoint" />
            <Array as="points">
              <mxPoint x="504" y="613" />
            </Array>
          </mxGeometry>
        </mxCell>
        <mxCell id="5YilNVTnUd-Ynj097pWx-37" style="edgeStyle=orthogonalEdgeStyle;rounded=0;orthogonalLoop=1;jettySize=auto;html=1;exitX=0.5;exitY=1;exitDx=0;exitDy=0;entryX=0.5;entryY=0;entryDx=0;entryDy=0;entryPerimeter=0;" edge="1" parent="1" source="5YilNVTnUd-Ynj097pWx-9" target="5YilNVTnUd-Ynj097pWx-10">
          <mxGeometry relative="1" as="geometry" />
        </mxCell>
        <mxCell id="5YilNVTnUd-Ynj097pWx-40" style="edgeStyle=orthogonalEdgeStyle;rounded=0;orthogonalLoop=1;jettySize=auto;html=1;exitX=0.5;exitY=1;exitDx=0;exitDy=0;entryX=1;entryY=0.85;entryDx=0;entryDy=0;entryPerimeter=0;" edge="1" parent="1" source="5YilNVTnUd-Ynj097pWx-38" target="5YilNVTnUd-Ynj097pWx-9">
          <mxGeometry relative="1" as="geometry">
            <mxPoint x="819.8333333333335" y="780" as="targetPoint" />
          </mxGeometry>
        </mxCell>
        <mxCell id="5YilNVTnUd-Ynj097pWx-38" value="Feedback" style="rounded=0;whiteSpace=wrap;html=1;" vertex="1" parent="1">
          <mxGeometry x="760" y="470" width="120" height="60" as="geometry" />
        </mxCell>
        <mxCell id="5YilNVTnUd-Ynj097pWx-42" value="" style="endArrow=none;dashed=1;html=1;rounded=0;exitX=1;exitY=0.75;exitDx=0;exitDy=0;" edge="1" parent="1" source="5YilNVTnUd-Ynj097pWx-21">
          <mxGeometry width="50" height="50" relative="1" as="geometry">
            <mxPoint x="740" y="580" as="sourcePoint" />
            <mxPoint x="790" y="530" as="targetPoint" />
            <Array as="points">
              <mxPoint x="790" y="648" />
            </Array>
          </mxGeometry>
        </mxCell>
      </root>
    </mxGraphModel>
  </diagram>
</mxfile>
